<?xml version="1.0" encoding="UTF-8"?>
<!--Generator: Apple Native CoreSVG 232.5-->
<!DOCTYPE svg
PUBLIC "-//W3C//DTD SVG 1.1//EN"
       "http://www.w3.org/Graphics/SVG/1.1/DTD/svg11.dtd">
<svg version="1.1" xmlns="http://www.w3.org/2000/svg" xmlns:xlink="http://www.w3.org/1999/xlink" width="47.8887" height="47.8956">
 <g>
  <rect height="47.8956" opacity="0" width="47.8887" x="0" y="0"/>
  <path d="M23.9356 47.8712C37.1016 47.8712 47.8887 37.0772 47.8887 23.9356C47.8887 10.7871 37.0948 0 23.9287 0C10.7871 0 0 10.7871 0 23.9356C0 37.0772 10.794 47.8712 23.9356 47.8712ZM23.9356 46.0058C11.7442 46.0058 1.87216 36.127 1.87216 23.9356C1.87216 11.7442 11.7374 1.84775 23.9287 1.84775C36.1201 1.84775 46.0234 11.7442 46.0234 23.9356C46.0234 36.127 36.127 46.0058 23.9356 46.0058Z" fill="#ffffff" fill-opacity="0.85"/>
  <path d="M19.1944 33.4991L33.1914 25.043C34.0411 24.5274 34.0518 23.4278 33.1914 22.9053L19.1944 14.3789C18.3555 13.8741 17.333 14.3028 17.333 15.1827L17.333 32.6778C17.333 33.5684 18.3457 34.0069 19.1944 33.4991Z" fill="#ffffff" fill-opacity="0.85"/>
 </g>
</svg>
