<?xml version="1.0" encoding="UTF-8"?>
<!--Generator: Apple Native CoreSVG 232.5-->
<!DOCTYPE svg
PUBLIC "-//W3C//DTD SVG 1.1//EN"
       "http://www.w3.org/Graphics/SVG/1.1/DTD/svg11.dtd">
<svg version="1.1" xmlns="http://www.w3.org/2000/svg" xmlns:xlink="http://www.w3.org/1999/xlink" width="95.7775" height="95.7912">
 <g>
  <rect height="95.7912" opacity="0" width="95.7775" x="0" y="0"/>
  <path d="M47.8712 95.7423C74.2032 95.7423 95.7775 74.1544 95.7775 47.8712C95.7775 21.5743 74.1896 0 47.8575 0C21.5743 0 0 21.5743 0 47.8712C0 74.1544 21.5879 95.7423 47.8712 95.7423ZM47.8712 92.0117C23.4884 92.0117 3.74433 72.2539 3.74433 47.8712C3.74433 23.4884 23.4747 3.6955 47.8575 3.6955C72.2403 3.6955 92.0468 23.4884 92.0468 47.8712C92.0468 72.2539 72.2539 92.0117 47.8712 92.0117Z" fill="#ffffff"/>
  <path d="M38.9044 74.3009L59.0235 74.3009C60.0763 74.3009 60.7951 73.504 60.7951 72.5215C60.7951 71.5664 60.0763 70.7558 59.0235 70.7558L50.7541 70.7558L50.7541 40.0666C50.7541 38.9416 50.1037 38.0978 48.9142 38.0978L39.2775 38.0978C38.2247 38.0978 37.4707 38.9084 37.4707 39.8635C37.4707 40.8108 38.2247 41.6077 39.2775 41.6077L47.1738 41.6077L47.1738 70.7558L38.9044 70.7558C37.8516 70.7558 37.1328 71.5664 37.1328 72.5215C37.1328 73.504 37.8516 74.3009 38.9044 74.3009ZM47.7833 28.1291C50.0118 28.1291 51.8459 26.3869 51.8459 24.1583C51.8459 21.9297 50.0118 20.1172 47.7833 20.1172C45.5684 20.1172 43.7558 21.9297 43.7558 24.1583C43.7558 26.3869 45.5684 28.1291 47.7833 28.1291Z" fill="#ffffff"/>
 </g>
</svg>
