<?xml version="1.0" encoding="UTF-8"?>
<!--Generator: Apple Native CoreSVG 232.5-->
<!DOCTYPE svg
PUBLIC "-//W3C//DTD SVG 1.1//EN"
       "http://www.w3.org/Graphics/SVG/1.1/DTD/svg11.dtd">
<svg version="1.1" xmlns="http://www.w3.org/2000/svg" xmlns:xlink="http://www.w3.org/1999/xlink" width="19.1555" height="19.1582">
 <g>
  <rect height="19.1582" opacity="0" width="19.1555" x="0" y="0"/>
  <path d="M9.57423 19.1485C14.8406 19.1485 19.1555 14.8309 19.1555 9.57423C19.1555 4.31485 14.8379 0 9.5715 0C4.31485 0 0 4.31485 0 9.57423C0 14.8309 4.31759 19.1485 9.57423 19.1485ZM9.57423 18.4023C4.69768 18.4023 0.748866 14.4508 0.748866 9.57423C0.748866 4.69768 4.69495 0.7391 9.5715 0.7391C14.4481 0.7391 18.4094 4.69768 18.4094 9.57423C18.4094 14.4508 14.4508 18.4023 9.57423 18.4023Z" fill="#ffffff"/>
  <path d="M7.78088 14.8602L11.8047 14.8602C12.0153 14.8602 12.159 14.7008 12.159 14.5043C12.159 14.3133 12.0153 14.1512 11.8047 14.1512L10.1508 14.1512L10.1508 8.01332C10.1508 7.78831 10.0207 7.61955 9.78283 7.61955L7.85549 7.61955C7.64494 7.61955 7.49415 7.78167 7.49415 7.97269C7.49415 8.16216 7.64494 8.32154 7.85549 8.32154L9.43477 8.32154L9.43477 14.1512L7.78088 14.1512C7.57032 14.1512 7.42657 14.3133 7.42657 14.5043C7.42657 14.7008 7.57032 14.8602 7.78088 14.8602ZM9.55665 5.62582C10.0024 5.62582 10.3692 5.27737 10.3692 4.83166C10.3692 4.38595 10.0024 4.02344 9.55665 4.02344C9.11367 4.02344 8.75117 4.38595 8.75117 4.83166C8.75117 5.27737 9.11367 5.62582 9.55665 5.62582Z" fill="#ffffff"/>
 </g>
</svg>
