<?xml version="1.0" encoding="UTF-8"?>
<!--Generator: Apple Native CoreSVG 232.5-->
<!DOCTYPE svg
PUBLIC "-//W3C//DTD SVG 1.1//EN"
       "http://www.w3.org/Graphics/SVG/1.1/DTD/svg11.dtd">
<svg version="1.1" xmlns="http://www.w3.org/2000/svg" xmlns:xlink="http://www.w3.org/1999/xlink" width="77.1915" height="77.2404">
 <g>
  <rect height="77.2404" opacity="0" width="77.1915" x="0" y="0"/>
  <path d="M0 38.5958C0 39.6525 0.876999 40.4806 1.88487 40.4806L36.7109 40.4806L36.7109 75.2715C36.7109 76.3145 37.5391 77.1915 38.5958 77.1915C39.6525 77.1915 40.4943 76.3145 40.4943 75.2715L40.4943 40.4806L75.2715 40.4806C76.3145 40.4806 77.1915 39.6525 77.1915 38.5958C77.1915 37.5391 76.3145 36.6621 75.2715 36.6621L40.4943 36.6621L40.4943 1.88487C40.4943 0.876999 39.6525 0 38.5958 0C37.5391 0 36.7109 0.876999 36.7109 1.88487L36.7109 36.6621L1.88487 36.6621C0.876999 36.6621 0 37.5391 0 38.5958Z" fill="#ffffff"/>
 </g>
</svg>
